# xmcd
#
# Track frame offsets:
#	150
#	16113
#	30850
#	46238
#	60525
#	76288
#	88488
#	105125
#	123975
#	136088
#
# Disc length: 2002 seconds
#
# Revision: 2
# Processed by: cddbd v1.5.2PL0 Copyright (c) Steve Scherf et al.
# Submitted via: audiograbber 1.83.01
#
DISCID=6907d00a
DTITLE=Various Artist - Wal*Mart Across America
DYEAR=1900
DGENRE=Country
TTITLE0=Wade Hayes - Don't Make Me Come to Tulsa
TTITLE1=Boy Howdy - True To His Word
TTITLE2=James House - A Real Good Way to Wind Up Lonesome
TTITLE3=Steve Kolander - Listen to Your Woman
TTITLE4=Wesley Dennis - I Don't Know
TTITLE5=Ken Mellons - Jukebox Junkie
TTITLE6=Ty Herndon - Hat Full of Rain
TTITLE7=Daron Norwood - My Girl Friday
TTITLE8=Radney Foster - Willin' to Walk
TTITLE9=Pirates of the Mississippi - I Think Locally
EXTD=
EXTT0=Wade Hayes
EXTT1=Boy Howdy
EXTT2=James House
EXTT3=Steve Kolander
EXTT4=Wesley Dennis
EXTT5=Ken Mellons
EXTT6=Ty Herndon
EXTT7=Daron Norwood
EXTT8=Radney Foster
EXTT9=Pirates of the Mississippi
PLAYORDER=
